<svg version="1.1" id="Layer_1" xmlns="http://www.w3.org/2000/svg" xmlns:xlink="http://www.w3.org/1999/xlink" x="0px" y="0px"
	 width="100%" viewBox="0 0 500 500" enable-background="new 0 0 500 500" xml:space="preserve">
<path fill="#FFFFFF" opacity="1.000000" stroke="none" 
	d="
M301.000000,501.000000 
	C200.666687,501.000000 100.833382,501.000000 1.000054,501.000000 
	C1.000036,334.333405 1.000036,167.666794 1.000018,1.000143 
	C167.666565,1.000095 334.333130,1.000095 500.999756,1.000048 
	C500.999847,167.666519 500.999847,334.333038 500.999939,500.999786 
	C434.500000,501.000000 368.000000,501.000000 301.000000,501.000000 
M226.374435,115.067520 
	C225.250153,116.042618 224.125854,117.017723 222.269485,117.984787 
	C219.111969,119.935234 215.954453,121.885689 212.144424,124.048073 
	C199.599182,133.919724 186.527344,143.201157 174.638290,153.808289 
	C158.791397,167.946487 145.261810,184.284561 135.224991,203.140961 
	C130.793655,211.466217 131.062973,220.105362 136.784088,228.102142 
	C149.442245,245.795242 175.496964,248.815445 192.241760,238.914963 
	C191.900436,233.075958 191.692795,227.190002 185.850754,222.993591 
	C181.107300,230.170105 173.688416,229.109924 166.560974,228.858383 
	C162.569778,228.717545 158.594772,228.156921 154.603882,227.957169 
	C150.781067,227.765854 149.195160,225.966965 149.994186,222.198486 
	C150.303513,220.739594 150.592636,219.258072 151.098343,217.861969 
	C157.307892,200.718506 169.137650,187.193100 180.940384,174.016083 
	C199.150818,153.685242 220.564911,136.978867 245.352905,125.262070 
	C261.390778,117.681290 277.677826,110.334801 294.464752,104.707726 
	C314.200287,98.092270 334.638397,97.014664 354.805725,104.070496 
	C361.089752,106.269043 367.072510,109.316200 368.355164,116.636330 
	C369.290375,121.973785 369.813171,127.553413 369.361145,132.927628 
	C368.499084,143.176620 363.251587,151.825378 357.542664,160.077393 
	C347.240295,174.968964 334.504639,187.637451 321.091736,199.706192 
	C304.689331,214.464890 287.140015,227.617538 267.936401,238.505539 
	C265.405273,239.940628 262.561218,240.823837 258.750946,242.431458 
	C260.344330,237.862457 261.428925,234.966965 262.364838,232.024185 
	C264.333649,225.833527 266.249725,219.625732 268.136688,213.409546 
	C269.092041,210.262314 269.765045,207.018555 270.893555,203.938568 
	C271.619476,201.957367 273.081543,200.259171 273.974518,198.323807 
	C280.993286,183.111359 288.083679,167.929504 294.860901,152.609421 
	C297.141571,147.453918 298.581024,141.926254 300.449249,136.438568 
	C295.023712,128.446915 285.443756,125.286072 278.874176,130.312439 
	C274.759277,133.460770 270.912323,137.619217 268.436005,142.140915 
	C253.702499,169.043839 243.300705,197.789764 234.068268,226.923325 
	C227.544113,247.510696 220.817307,268.153870 218.836227,289.840729 
	C217.265915,307.030853 215.935959,324.258240 215.209610,341.499023 
	C215.033142,345.687408 217.651291,349.993561 218.984436,354.245544 
	C219.522766,354.098053 220.061111,353.950562 220.599442,353.803101 
	C220.747726,352.669403 220.895996,351.535706 221.134247,349.714020 
	C222.371948,351.058167 223.068573,351.950104 223.899399,352.691711 
	C226.419022,354.940643 228.730621,357.584442 231.605438,359.234070 
	C235.500809,361.469269 240.145218,358.929993 240.018646,354.953369 
	C239.212326,329.620880 243.473145,304.917297 249.142990,280.386597 
	C250.962997,272.512360 252.926468,264.671265 254.912460,256.450043 
	C258.059052,257.514740 260.352753,258.753448 262.749725,259.003876 
	C267.478729,259.498016 272.679932,260.718170 276.934479,259.331970 
	C284.096954,256.998322 290.949951,253.318741 297.420441,249.366028 
	C304.206085,245.220779 310.703674,240.460175 316.776031,235.317749 
	C336.008301,219.030899 355.274200,202.856216 371.058929,182.849945 
	C382.789825,167.981720 390.730682,152.418839 387.874390,133.014557 
	C387.117523,127.872925 386.760529,121.738007 383.766266,118.052757 
	C377.334290,110.136414 369.338379,103.482780 361.891754,96.407967 
	C360.851257,95.419449 359.367584,94.740189 357.968384,94.313660 
	C351.940308,92.476051 345.828644,90.908745 339.817688,89.019417 
	C321.074432,83.128151 302.560944,87.166954 283.365814,90.094330 
	C282.591583,90.438828 281.817322,90.783333 280.340668,91.108955 
	C279.237122,91.496819 278.133545,91.884674 276.296265,92.301552 
	C259.890411,99.880234 243.484573,107.458916 226.374435,115.067520 
M356.133270,422.364288 
	C348.798309,414.570160 341.463348,406.776031 333.517944,398.333252 
	C333.517944,411.066895 333.642609,422.646118 333.411316,434.218231 
	C333.365784,436.496216 331.946960,438.746704 331.205566,440.882812 
	C333.071899,440.882812 335.714355,440.882812 337.469879,440.882812 
	C337.469879,430.279633 337.469879,419.815948 337.469879,408.692078 
	C347.890106,419.751465 358.009552,430.491608 368.888885,442.038269 
	C368.888885,429.445404 368.768921,418.315918 368.976288,407.192474 
	C369.025879,404.533173 370.166229,401.894165 370.781677,399.342194 
	C368.696289,399.342194 365.602448,399.342194 362.869202,399.342194 
	C363.837677,400.778931 365.735992,402.301300 365.785278,403.881348 
	C366.072479,413.094452 365.925964,422.321106 365.925964,432.746521 
	C362.242523,428.851135 359.423828,425.870270 356.133270,422.364288 
M232.530075,403.876404 
	C235.011948,407.396637 236.400864,411.708069 233.718155,415.014282 
	C231.347961,417.935242 227.179306,419.396851 224.457001,421.095764 
	C227.382294,425.041962 230.972733,429.969849 234.654358,434.828674 
	C238.490387,439.891266 241.502411,441.243408 245.403442,440.512268 
	C240.696686,434.845062 235.664139,428.785614 230.572891,422.655487 
	C238.190216,418.220459 240.735657,413.334503 239.015137,407.052643 
	C237.529968,401.630096 233.365997,399.311218 225.010345,399.277161 
	C221.083282,399.261169 217.156097,399.274414 212.969772,399.274414 
	C217.295166,403.573090 217.611069,436.172089 213.671112,440.757385 
	C216.962051,440.757385 220.288223,440.757385 222.780609,440.757385 
	C221.995285,439.041473 220.522171,437.283722 220.482300,435.494049 
	C220.255997,425.336090 220.420807,415.170135 220.338547,405.007812 
	C220.317688,402.430725 221.337494,401.136078 223.862976,401.528839 
	C226.583130,401.951874 229.255035,402.685059 232.530075,403.876404 
M291.562469,400.911743 
	C284.244354,404.822662 280.957581,411.165466 280.581482,419.224762 
	C279.961487,432.511688 288.976654,442.001556 302.115082,441.933014 
	C315.196014,441.864777 324.150238,432.142700 323.314178,418.916046 
	C322.296387,402.814331 308.244537,394.521851 291.562469,400.911743 
M112.289558,421.002167 
	C117.219437,423.542816 121.682137,422.448059 125.497948,418.859467 
	C128.963074,415.600677 129.677078,411.467133 128.218155,406.933197 
	C126.623833,401.978455 122.848076,399.771301 118.059616,399.474182 
	C112.805672,399.148193 107.515877,399.399933 102.906586,399.399933 
	C103.703827,401.381958 105.231339,403.477936 105.288689,405.613434 
	C105.552071,415.421326 105.540115,425.243683 105.292343,435.052399 
	C105.241737,437.055664 103.752274,439.022614 103.031693,440.752686 
	C105.409645,440.752686 108.441071,440.752686 111.472504,440.752686 
	C110.962784,440.663177 110.453072,440.573639 109.943352,440.484131 
	C109.497177,427.602936 109.779411,414.706818 109.761436,401.901703 
	C120.589180,400.663208 124.694466,403.734680 124.074875,411.831177 
	C123.639229,417.523956 120.020973,420.143585 112.289558,421.002167 
M175.013290,427.395935 
	C172.354279,431.929840 172.463760,438.254669 165.746017,440.829407 
	C169.673645,440.829407 172.891418,440.829407 176.197327,440.829407 
	C174.710861,438.028748 176.150208,428.108307 178.652359,427.671661 
	C183.768784,426.778870 189.188782,426.830811 194.367493,427.456268 
	C196.639069,427.730591 198.369553,438.110535 197.085083,440.831604 
	C200.192139,440.831604 203.279404,440.831604 205.455017,440.831604 
	C199.532166,427.112061 193.538483,413.228516 187.186646,398.515289 
	C183.003525,408.415283 179.143936,417.549591 175.013290,427.395935 
M148.452713,419.464111 
	C146.946457,418.694885 144.210175,418.026886 144.137146,417.139709 
	C143.719116,412.060547 143.933975,406.929291 143.933975,401.704590 
	C149.257767,401.704590 153.882980,401.704590 158.752930,401.704590 
	C158.892227,400.867188 159.059235,399.863098 159.179932,399.137421 
	C151.347275,399.137421 143.933807,399.137421 137.177307,399.137421 
	C138.108200,401.350647 139.701813,403.439697 139.761154,405.571442 
	C140.034531,415.395111 140.030838,425.234863 139.755737,435.058502 
	C139.698853,437.089172 138.061386,439.075562 137.172058,441.039001 
	C143.336792,441.039001 150.165939,441.095703 156.993515,441.016144 
	C160.646729,440.973572 160.903198,440.515228 160.606171,437.317474 
	C155.281250,438.056061 149.907761,438.801392 144.343597,439.573181 
	C144.343597,432.941559 144.343597,427.417694 144.343597,421.200958 
	C148.980057,421.717621 153.097885,422.176514 157.018524,422.613403 
	C157.018524,421.499725 157.018524,419.270599 157.018524,418.235809 
	C154.370453,418.662933 151.884186,419.063965 148.452713,419.464111 
M391.389221,423.140289 
	C392.608154,424.271667 394.416229,425.188934 394.921539,426.579590 
	C395.929077,429.352325 397.452332,432.931976 396.463837,435.157166 
	C395.467926,437.399017 391.658905,439.643097 389.127136,439.593781 
	C386.664581,439.545776 384.122955,436.749420 381.897186,434.833282 
	C381.051147,434.104980 380.988495,432.466614 380.568787,431.243042 
	C380.141327,431.352814 379.713898,431.462616 379.286438,431.572388 
	C379.921204,434.285492 379.703552,437.815765 381.362854,439.546722 
	C385.170471,443.518738 394.631500,442.524689 398.319275,438.509583 
	C402.454132,434.007721 401.958405,427.257660 397.061707,422.513733 
	C393.477570,419.041382 389.729767,415.735504 386.201263,412.209015 
	C383.836243,409.845306 382.950165,406.602081 385.262024,404.136139 
	C386.929871,402.357117 390.022125,400.891296 392.358246,401.051178 
	C394.651398,401.208099 396.791992,403.594818 398.801819,404.876892 
	C398.735992,403.522369 398.640930,401.566681 398.536804,399.424255 
	C396.299866,399.132050 394.359100,398.764587 392.403229,398.645721 
	C387.721924,398.361298 383.767914,399.739563 381.703064,404.297089 
	C379.607483,408.922424 380.607819,413.049561 384.292328,416.523041 
	C386.471466,418.577393 388.669189,420.612061 391.389221,423.140289 
M252.036026,433.233063 
	C252.637283,435.473328 252.516525,438.585083 253.973663,439.792267 
	C258.547516,443.581665 267.343201,442.411255 270.880066,438.177826 
	C274.896942,433.369720 274.014465,426.787292 268.678558,421.806702 
	C265.274261,418.629028 261.741882,415.577087 258.492218,412.248810 
	C255.823883,409.515961 255.321121,405.725586 258.118103,403.361816 
	C260.125610,401.665192 263.736450,401.326141 266.607941,401.394501 
	C268.322510,401.435272 269.990509,403.431580 271.679443,404.548828 
	C271.343262,404.840668 271.007080,405.132477 270.670898,405.424286 
	C270.670898,403.478577 270.670898,401.532867 270.670898,399.403992 
	C268.810150,399.166229 267.189514,398.955231 265.567780,398.752686 
	C260.470642,398.115936 256.316437,399.511169 253.919357,404.382172 
	C251.765152,408.759644 252.769547,412.875549 256.965393,416.912628 
	C260.440796,420.256531 264.194580,423.330719 267.483185,426.844330 
	C271.784058,431.439484 269.573181,438.158813 263.484406,439.692657 
	C258.753906,440.884338 255.063110,438.426086 253.651993,433.143799 
	C253.328873,431.934265 253.328842,431.934265 252.036026,433.233063 
z"/>
<path fill="#C35A64" opacity="1.000000" stroke="none" 
	d="
M277.029999,92.272537 
	C278.133545,91.884674 279.237122,91.496819 280.895691,91.352142 
	C282.304932,91.111145 283.159119,90.626961 284.013336,90.142776 
	C302.560944,87.166954 321.074432,83.128151 339.817688,89.019417 
	C345.828644,90.908745 351.940308,92.476051 357.968384,94.313660 
	C359.367584,94.740189 360.851257,95.419449 361.891754,96.407967 
	C369.338379,103.482780 377.334290,110.136414 383.766266,118.052757 
	C386.760529,121.738007 387.117523,127.872925 387.874390,133.014557 
	C390.730682,152.418839 382.789825,167.981720 371.058929,182.849945 
	C355.274200,202.856216 336.008301,219.030899 316.776031,235.317749 
	C310.703674,240.460175 304.206085,245.220779 297.420441,249.366028 
	C290.949951,253.318741 284.096954,256.998322 276.934479,259.331970 
	C272.679932,260.718170 267.478729,259.498016 262.749725,259.003876 
	C260.352753,258.753448 258.059052,257.514740 254.912460,256.450043 
	C252.926468,264.671265 250.962997,272.512360 249.142990,280.386597 
	C243.473145,304.917297 239.212326,329.620880 240.018646,354.953369 
	C240.145218,358.929993 235.500809,361.469269 231.605438,359.234070 
	C228.730621,357.584442 226.419022,354.940643 223.899399,352.691711 
	C223.068573,351.950104 222.371948,351.058167 221.134247,349.714020 
	C220.895996,351.535706 220.747726,352.669403 220.599442,353.803101 
	C220.061111,353.950562 219.522766,354.098053 218.984436,354.245544 
	C217.651291,349.993561 215.033142,345.687408 215.209610,341.499023 
	C215.935959,324.258240 217.265915,307.030853 218.836227,289.840729 
	C220.817307,268.153870 227.544113,247.510696 234.068268,226.923325 
	C243.300705,197.789764 253.702499,169.043839 268.436005,142.140915 
	C270.912323,137.619217 274.759277,133.460770 278.874176,130.312439 
	C285.443756,125.286072 295.023712,128.446915 300.449249,136.438568 
	C298.581024,141.926254 297.141571,147.453918 294.860901,152.609421 
	C288.083679,167.929504 280.993286,183.111359 273.974518,198.323807 
	C273.081543,200.259171 271.619476,201.957367 270.893555,203.938568 
	C269.765045,207.018555 269.092041,210.262314 268.136688,213.409546 
	C266.249725,219.625732 264.333649,225.833527 262.364838,232.024185 
	C261.428925,234.966965 260.344330,237.862457 258.750946,242.431458 
	C262.561218,240.823837 265.405273,239.940628 267.936401,238.505539 
	C287.140015,227.617538 304.689331,214.464890 321.091736,199.706192 
	C334.504639,187.637451 347.240295,174.968964 357.542664,160.077393 
	C363.251587,151.825378 368.499084,143.176620 369.361145,132.927628 
	C369.813171,127.553413 369.290375,121.973785 368.355164,116.636330 
	C367.072510,109.316200 361.089752,106.269043 354.805725,104.070496 
	C334.638397,97.014664 314.200287,98.092270 294.464752,104.707726 
	C277.677826,110.334801 261.390778,117.681290 245.352905,125.262070 
	C220.564911,136.978867 199.150818,153.685242 180.940384,174.016083 
	C169.137650,187.193100 157.307892,200.718506 151.098343,217.861969 
	C150.592636,219.258072 150.303513,220.739594 149.994186,222.198486 
	C149.195160,225.966965 150.781067,227.765854 154.603882,227.957169 
	C158.594772,228.156921 162.569778,228.717545 166.560974,228.858383 
	C173.688416,229.109924 181.107300,230.170105 185.850754,222.993591 
	C191.692795,227.190002 191.900436,233.075958 192.241760,238.914963 
	C175.496964,248.815445 149.442245,245.795242 136.784088,228.102142 
	C131.062973,220.105362 130.793655,211.466217 135.224991,203.140961 
	C145.261810,184.284561 158.791397,167.946487 174.638290,153.808289 
	C186.527344,143.201157 199.599182,133.919724 212.775269,124.084694 
	C213.972427,124.789490 214.538742,125.457657 214.933762,126.397125 
	C214.252335,127.270973 213.742218,127.873512 213.232101,128.476059 
	C239.770203,111.337189 268.596039,99.662971 298.899384,91.299568 
	C298.732758,90.786613 298.566162,90.273666 298.399536,89.760719 
	C291.282440,91.609573 284.165314,93.458435 277.039185,94.926636 
	C277.030090,93.788162 277.030060,93.030350 277.029999,92.272537 
M348.007019,200.155060 
	C347.942383,199.797989 347.877716,199.440918 347.813049,199.083847 
	C347.473846,199.323212 347.134613,199.562561 346.342926,199.994904 
	C346.059265,200.191742 345.878448,200.458328 345.342499,201.005234 
	C345.186676,201.293655 345.030853,201.582077 344.434601,202.069580 
	C344.753784,202.197357 345.072937,202.325134 345.855835,202.232437 
	C346.105377,201.998093 346.354950,201.763748 346.947968,201.266525 
	C347.169586,201.074692 347.360901,200.856293 348.007019,200.155060 
M177.104309,156.762161 
	C176.848709,156.992752 176.680862,157.275421 176.258942,157.949432 
	C176.323730,158.216370 176.388519,158.483322 176.453293,158.750244 
	C176.679657,158.548325 176.906006,158.346405 177.603363,157.970139 
	C177.794830,157.702759 177.986313,157.435364 178.623505,156.978027 
	C178.908127,156.799179 179.110580,156.552811 179.713684,156.457840 
	C180.055679,156.706360 180.397675,156.954880 180.739670,157.203400 
	C182.590408,154.640503 184.441147,152.077591 186.734177,148.902206 
	C181.995667,149.311279 181.033173,153.468155 178.102631,155.795944 
	C177.869614,155.995316 177.677231,156.228256 177.104309,156.762161 
M200.952957,150.318237 
	C201.366852,149.950500 201.780746,149.582748 202.843582,149.002670 
	C207.420090,145.662445 211.996597,142.322220 216.573105,138.981995 
	C216.189575,138.488174 215.806061,137.994339 215.422546,137.500519 
	C210.751740,141.133133 206.080933,144.765747 200.949585,148.661591 
	C200.562698,149.028763 200.175797,149.395920 199.175613,149.867004 
	C198.900360,150.141083 198.625107,150.415176 198.349854,150.689255 
	C199.040817,150.630829 199.731766,150.572388 200.952957,150.318237 
M359.937408,184.913681 
	C357.879120,187.513977 355.820801,190.114273 353.762482,192.714569 
	C354.254547,193.076187 354.746582,193.437805 355.238617,193.799438 
	C357.231873,190.930069 359.225098,188.060699 361.710327,184.835159 
	C361.784302,184.321823 361.858276,183.808487 362.061157,182.400543 
	C361.136871,183.593094 360.789276,184.041534 359.937408,184.913681 
M265.017578,111.198166 
	C276.018829,107.490456 286.807007,102.819145 298.077148,100.327568 
	C311.125031,97.442955 324.596771,96.475479 335.981415,94.933472 
	C311.665161,92.817055 287.126190,98.988106 262.998901,110.809975 
	C250.398499,117.294487 237.798080,123.778992 225.197678,130.263504 
	C225.522171,130.880173 225.846649,131.496841 226.171143,132.113510 
	C238.870422,125.182793 251.569687,118.252083 265.017578,111.198166 
M231.309402,281.342377 
	C230.576263,287.432343 229.843109,293.522308 229.109955,299.612274 
	C229.617630,299.660370 230.125290,299.708466 230.632950,299.756561 
	C231.884964,292.699463 233.136963,285.642365 234.388977,278.585266 
	C233.970688,278.457825 233.552414,278.330383 233.134140,278.202911 
	C232.412186,278.972809 231.690231,279.742706 230.557434,279.891205 
	C232.632462,271.241180 234.153717,262.411560 236.889038,253.975647 
	C244.316376,231.069183 252.272247,208.334274 259.971222,185.515366 
	C260.638641,183.537201 260.956512,181.441086 261.436768,179.399765 
	C256.283936,188.850037 251.231323,198.140488 247.664642,207.970093 
	C243.508240,219.424927 240.368942,231.277710 237.291977,243.089035 
	C231.682510,264.621765 225.511688,286.045868 223.470032,308.352997 
	C222.548264,318.424286 221.098663,328.447876 220.217514,338.521881 
	C219.985107,341.178864 220.976212,343.942841 221.405487,346.657684 
	C223.719559,333.683624 224.536453,320.910370 226.087708,308.226959 
	C227.228882,298.896759 229.330734,289.684052 231.309402,281.342377 
M360.225616,161.113144 
	C359.232117,162.232529 358.107513,163.261551 357.264587,164.484695 
	C342.583191,185.789276 323.745209,202.994583 303.388428,218.603394 
	C294.019287,225.787277 284.099365,232.256042 274.378143,238.975220 
	C271.932220,240.665787 269.450470,242.516586 266.701965,243.510254 
	C261.937256,245.232834 257.226105,246.622131 257.255707,254.387924 
	C263.531097,252.505432 270.035187,251.761444 275.217499,248.745956 
	C285.684540,242.655334 295.687622,235.672394 305.419159,228.435074 
	C319.849426,217.703384 333.783478,206.328644 345.646027,191.774399 
	C349.213348,187.291214 352.780670,182.808029 356.347992,178.324860 
	C355.892029,177.972595 355.436066,177.620346 354.980103,177.268082 
	C351.305237,181.836975 347.630402,186.405869 343.339752,191.363113 
	C342.350616,192.079727 341.361481,192.796341 339.440277,194.188248 
	C347.349640,182.467438 354.435211,171.967422 361.842407,161.050797 
	C361.801422,160.802338 361.760437,160.553864 361.719452,160.305405 
	C361.424835,160.479004 361.130219,160.652603 360.225616,161.113144 
M196.679810,142.503174 
	C201.025726,138.876953 205.371643,135.250748 209.717560,131.624527 
	C203.266022,134.801697 196.142181,137.005646 191.555511,144.275330 
	C193.860672,143.814392 195.260376,143.534515 196.679810,142.503174 
M247.848694,227.965424 
	C249.393768,227.730057 252.243698,227.621246 252.280701,227.239609 
	C252.624451,223.695343 252.483932,220.104111 252.483932,216.526520 
	C252.028519,216.498672 251.573090,216.470840 251.117676,216.442993 
	C250.018829,220.025085 248.919983,223.607193 247.848694,227.965424 
M352.539062,194.580536 
	C351.161011,195.795563 349.782959,197.010605 348.404907,198.225647 
	C348.880554,198.636353 349.356232,199.047058 349.831879,199.457764 
	C350.894928,198.051025 351.957977,196.644302 352.539062,194.580536 
M217.208344,136.784012 
	C217.429993,137.110962 217.651657,137.437897 217.873291,137.764832 
	C218.283661,137.331284 218.694031,136.897736 219.104416,136.464188 
	C218.664612,136.407440 218.224808,136.350693 217.208344,136.784012 
M357.437714,175.234482 
	C356.971771,175.779541 356.505829,176.324615 356.039886,176.869675 
	C356.237366,177.032684 356.434814,177.195694 356.632294,177.358704 
	C357.033539,176.844849 357.434784,176.331009 357.437714,175.234482 
M224.884109,132.494644 
	C224.374084,132.471420 223.864075,132.448181 223.354050,132.424957 
	C223.700546,132.588638 224.047058,132.752304 224.884109,132.494644 
M220.770264,135.553665 
	C220.529358,135.535568 220.288467,135.517487 220.047562,135.499405 
	C220.159561,135.620148 220.271561,135.740875 220.770264,135.553665 
z"/>
<path fill="#C6626B" opacity="1.000000" stroke="none" 
	d="
M356.369202,422.626831 
	C359.423828,425.870270 362.242523,428.851135 365.925964,432.746521 
	C365.925964,422.321106 366.072479,413.094452 365.785278,403.881348 
	C365.735992,402.301300 363.837677,400.778931 362.869202,399.342194 
	C365.602448,399.342194 368.696289,399.342194 370.781677,399.342194 
	C370.166229,401.894165 369.025879,404.533173 368.976288,407.192474 
	C368.768921,418.315918 368.888885,429.445404 368.888885,442.038269 
	C358.009552,430.491608 347.890106,419.751465 337.469879,408.692078 
	C337.469879,419.815948 337.469879,430.279633 337.469879,440.882812 
	C335.714355,440.882812 333.071899,440.882812 331.205566,440.882812 
	C331.946960,438.746704 333.365784,436.496216 333.411316,434.218231 
	C333.642609,422.646118 333.517944,411.066895 333.517944,398.333252 
	C341.463348,406.776031 348.798309,414.570160 356.369202,422.626831 
z"/>
<path fill="#C6646D" opacity="1.000000" stroke="none" 
	d="
M232.239029,403.579651 
	C229.255035,402.685059 226.583130,401.951874 223.862976,401.528839 
	C221.337494,401.136078 220.317688,402.430725 220.338547,405.007812 
	C220.420807,415.170135 220.255997,425.336090 220.482300,435.494049 
	C220.522171,437.283722 221.995285,439.041473 222.780609,440.757385 
	C220.288223,440.757385 216.962051,440.757385 213.671112,440.757385 
	C217.611069,436.172089 217.295166,403.573090 212.969772,399.274414 
	C217.156097,399.274414 221.083282,399.261169 225.010345,399.277161 
	C233.365997,399.311218 237.529968,401.630096 239.015137,407.052643 
	C240.735657,413.334503 238.190216,418.220459 230.572891,422.655487 
	C235.664139,428.785614 240.696686,434.845062 245.403442,440.512268 
	C241.502411,441.243408 238.490387,439.891266 234.654358,434.828674 
	C230.972733,429.969849 227.382294,425.041962 224.457001,421.095764 
	C227.179306,419.396851 231.347961,417.935242 233.718155,415.014282 
	C236.400864,411.708069 235.011948,407.396637 232.239029,403.579651 
z"/>
<path fill="#C5616A" opacity="1.000000" stroke="none" 
	d="
M291.907715,400.748779 
	C308.244537,394.521851 322.296387,402.814331 323.314178,418.916046 
	C324.150238,432.142700 315.196014,441.864777 302.115082,441.933014 
	C288.976654,442.001556 279.961487,432.511688 280.581482,419.224762 
	C280.957581,411.165466 284.244354,404.822662 291.907715,400.748779 
M286.714478,411.575684 
	C286.219208,414.013367 285.491730,416.430145 285.270172,418.892456 
	C284.448853,428.019562 289.052460,436.383179 296.143402,438.977966 
	C307.604309,443.171783 317.475800,435.642426 318.667603,421.797943 
	C319.491180,412.231201 314.535645,403.517883 306.992157,401.268890 
	C298.403229,398.708160 291.491943,402.012543 286.714478,411.575684 
z"/>
<path fill="#C86871" opacity="1.000000" stroke="none" 
	d="
M112.272339,420.695465 
	C120.020973,420.143585 123.639229,417.523956 124.074875,411.831177 
	C124.694466,403.734680 120.589180,400.663208 109.761436,401.901703 
	C109.779411,414.706818 109.497177,427.602936 109.943352,440.484131 
	C110.453072,440.573639 110.962784,440.663177 111.472504,440.752686 
	C108.441071,440.752686 105.409645,440.752686 103.031693,440.752686 
	C103.752274,439.022614 105.241737,437.055664 105.292343,435.052399 
	C105.540115,425.243683 105.552071,415.421326 105.288689,405.613434 
	C105.231339,403.477936 103.703827,401.381958 102.906586,399.399933 
	C107.515877,399.399933 112.805672,399.148193 118.059616,399.474182 
	C122.848076,399.771301 126.623833,401.978455 128.218155,406.933197 
	C129.677078,411.467133 128.963074,415.600677 125.497948,418.859467 
	C121.682137,422.448059 117.219437,423.542816 112.272339,420.695465 
z"/>
<path fill="#C6626B" opacity="1.000000" stroke="none" 
	d="
M175.148819,427.039917 
	C179.143936,417.549591 183.003525,408.415283 187.186646,398.515289 
	C193.538483,413.228516 199.532166,427.112061 205.455017,440.831604 
	C203.279404,440.831604 200.192139,440.831604 197.085083,440.831604 
	C198.369553,438.110535 196.639069,427.730591 194.367493,427.456268 
	C189.188782,426.830811 183.768784,426.778870 178.652359,427.671661 
	C176.150208,428.108307 174.710861,438.028748 176.197327,440.829407 
	C172.891418,440.829407 169.673645,440.829407 165.746017,440.829407 
	C172.463760,438.254669 172.354279,431.929840 175.148819,427.039917 
M190.573181,416.011475 
	C189.384933,413.033081 188.196671,410.054657 186.635757,406.142151 
	C184.022583,412.871796 181.830139,418.517975 179.475067,424.582947 
	C184.475159,424.582947 188.673813,424.582947 193.486893,424.582947 
	C192.512238,421.671387 191.687805,419.208618 190.573181,416.011475 
z"/>
<path fill="#C6646D" opacity="1.000000" stroke="none" 
	d="
M148.925323,419.464539 
	C151.884186,419.063965 154.370453,418.662933 157.018524,418.235809 
	C157.018524,419.270599 157.018524,421.499725 157.018524,422.613403 
	C153.097885,422.176514 148.980057,421.717621 144.343597,421.200958 
	C144.343597,427.417694 144.343597,432.941559 144.343597,439.573181 
	C149.907761,438.801392 155.281250,438.056061 160.606171,437.317474 
	C160.903198,440.515228 160.646729,440.973572 156.993515,441.016144 
	C150.165939,441.095703 143.336792,441.039001 137.172058,441.039001 
	C138.061386,439.075562 139.698853,437.089172 139.755737,435.058502 
	C140.030838,425.234863 140.034531,415.395111 139.761154,405.571442 
	C139.701813,403.439697 138.108200,401.350647 137.177307,399.137421 
	C143.933807,399.137421 151.347275,399.137421 159.179932,399.137421 
	C159.059235,399.863098 158.892227,400.867188 158.752930,401.704590 
	C153.882980,401.704590 149.257767,401.704590 143.933975,401.704590 
	C143.933975,406.929291 143.719116,412.060547 144.137146,417.139709 
	C144.210175,418.026886 146.946457,418.694885 148.925323,419.464539 
z"/>
<path fill="#C6646D" opacity="1.000000" stroke="none" 
	d="
M391.123901,422.897949 
	C388.669189,420.612061 386.471466,418.577393 384.292328,416.523041 
	C380.607819,413.049561 379.607483,408.922424 381.703064,404.297089 
	C383.767914,399.739563 387.721924,398.361298 392.403229,398.645721 
	C394.359100,398.764587 396.299866,399.132050 398.536804,399.424255 
	C398.640930,401.566681 398.735992,403.522369 398.801819,404.876892 
	C396.791992,403.594818 394.651398,401.208099 392.358246,401.051178 
	C390.022125,400.891296 386.929871,402.357117 385.262024,404.136139 
	C382.950165,406.602081 383.836243,409.845306 386.201263,412.209015 
	C389.729767,415.735504 393.477570,419.041382 397.061707,422.513733 
	C401.958405,427.257660 402.454132,434.007721 398.319275,438.509583 
	C394.631500,442.524689 385.170471,443.518738 381.362854,439.546722 
	C379.703552,437.815765 379.921204,434.285492 379.286438,431.572388 
	C379.713898,431.462616 380.141327,431.352814 380.568787,431.243042 
	C380.988495,432.466614 381.051147,434.104980 381.897186,434.833282 
	C384.122955,436.749420 386.664581,439.545776 389.127136,439.593781 
	C391.658905,439.643097 395.467926,437.399017 396.463837,435.157166 
	C397.452332,432.931976 395.929077,429.352325 394.921539,426.579590 
	C394.416229,425.188934 392.608154,424.271667 391.123901,422.897949 
z"/>
<path fill="#C6646D" opacity="1.000000" stroke="none" 
	d="
M252.074265,432.884552 
	C253.328842,431.934265 253.328873,431.934265 253.651993,433.143799 
	C255.063110,438.426086 258.753906,440.884338 263.484406,439.692657 
	C269.573181,438.158813 271.784058,431.439484 267.483185,426.844330 
	C264.194580,423.330719 260.440796,420.256531 256.965393,416.912628 
	C252.769547,412.875549 251.765152,408.759644 253.919357,404.382172 
	C256.316437,399.511169 260.470642,398.115936 265.567780,398.752686 
	C267.189514,398.955231 268.810150,399.166229 270.670898,399.403992 
	C270.670898,401.532867 270.670898,403.478577 270.670898,405.424286 
	C271.007080,405.132477 271.343262,404.840668 271.679443,404.548828 
	C269.990509,403.431580 268.322510,401.435272 266.607941,401.394501 
	C263.736450,401.326141 260.125610,401.665192 258.118103,403.361816 
	C255.321121,405.725586 255.823883,409.515961 258.492218,412.248810 
	C261.741882,415.577087 265.274261,418.629028 268.678558,421.806702 
	C274.014465,426.787292 274.896942,433.369720 270.880066,438.177826 
	C267.343201,442.411255 258.547516,443.581665 253.973663,439.792267 
	C252.516525,438.585083 252.637283,435.473328 252.074265,432.884552 
z"/>
<path fill="#F7EAEB" opacity="1.000000" stroke="none" 
	d="
M277.048218,95.307297 
	C284.165314,93.458435 291.282440,91.609573 298.399536,89.760719 
	C298.566162,90.273666 298.732758,90.786613 298.899384,91.299568 
	C268.596039,99.662971 239.770203,111.337189 213.232101,128.476059 
	C213.742218,127.873512 214.252335,127.270973 215.238998,126.243050 
	C218.144226,123.209381 220.572891,120.601097 223.001572,117.992821 
	C224.125854,117.017723 225.250153,116.042618 226.698349,115.436150 
	C228.678543,115.841286 230.567444,116.410172 231.944839,115.808380 
	C235.265930,114.357376 238.231201,112.095192 241.547150,110.628647 
	C253.334015,105.415672 265.207520,100.398575 277.048218,95.307297 
z"/>
<path fill="#C86871" opacity="1.000000" stroke="none" 
	d="
M277.039185,94.926636 
	C265.207520,100.398575 253.334015,105.415672 241.547150,110.628647 
	C238.231201,112.095192 235.265930,114.357376 231.944839,115.808380 
	C230.567444,116.410172 228.678543,115.841286 227.050491,115.421188 
	C243.484573,107.458916 259.890411,99.880234 276.663147,92.287041 
	C277.030060,93.030350 277.030090,93.788162 277.039185,94.926636 
z"/>
<path fill="#D07D85" opacity="1.000000" stroke="none" 
	d="
M222.635529,117.988800 
	C220.572891,120.601097 218.144226,123.209381 215.410309,125.971741 
	C214.538742,125.457657 213.972427,124.789490 213.101501,123.978729 
	C215.954453,121.885689 219.111969,119.935234 222.635529,117.988800 
z"/>
<path fill="#C86871" opacity="1.000000" stroke="none" 
	d="
M283.689575,90.118553 
	C283.159119,90.626961 282.304932,91.111145 281.246887,91.361580 
	C281.817322,90.783333 282.591583,90.438828 283.689575,90.118553 
z"/>
<path fill="#FBF4F5" opacity="1.000000" stroke="none" 
	d="
M361.520752,161.467422 
	C354.435211,171.967422 347.349640,182.467438 339.440277,194.188248 
	C341.361481,192.796341 342.350616,192.079727 343.890045,191.295593 
	C344.648193,191.522827 344.856049,191.817596 345.063873,192.112366 
	C333.783478,206.328644 319.849426,217.703384 305.419159,228.435074 
	C295.687622,235.672394 285.684540,242.655334 275.217499,248.745956 
	C270.035187,251.761444 263.531097,252.505432 257.255707,254.387924 
	C257.226105,246.622131 261.937256,245.232834 266.701965,243.510254 
	C269.450470,242.516586 271.932220,240.665787 274.378143,238.975220 
	C284.099365,232.256042 294.019287,225.787277 303.388428,218.603394 
	C323.745209,202.994583 342.583191,185.789276 357.264587,164.484695 
	C358.107513,163.261551 359.232117,162.232529 360.696167,161.136078 
	C361.166748,161.158997 361.520752,161.467422 361.520752,161.467422 
M321.017548,210.817764 
	C321.074951,211.168610 321.132355,211.519455 321.189758,211.870300 
	C321.541687,211.660263 321.893646,211.450241 322.681610,211.031815 
	C322.960571,210.849518 323.164917,210.604874 323.872284,210.044342 
	C324.905121,209.024643 325.937988,208.004944 327.278198,206.786316 
	C327.278198,206.786316 327.449188,206.462601 327.843323,206.201889 
	C328.095032,206.006882 328.312531,205.779175 328.893890,205.264954 
	C329.133911,205.061523 329.344666,204.831314 329.948486,204.303329 
	C330.167786,204.052841 330.387115,203.802368 331.011078,203.258530 
	C331.228271,203.003693 331.445465,202.748840 332.080811,202.048798 
	C332.032745,201.771088 331.984680,201.493378 331.936615,201.215668 
	C331.568756,201.417953 331.200867,201.620224 330.366852,202.004822 
	C330.186951,202.277328 330.007080,202.549850 329.355499,202.990143 
	C329.164886,203.254730 328.974274,203.519302 328.320312,203.961029 
	C328.020721,204.144058 327.830353,204.406357 327.292603,204.935120 
	C327.001129,205.120316 326.805328,205.378159 326.326172,205.816727 
	C326.326172,205.816727 326.046783,206.094803 325.458282,206.319138 
	C324.444061,207.379715 323.429840,208.440292 322.068359,209.745132 
	C321.839539,209.923279 321.654663,210.139099 321.017548,210.817764 
M318.340973,212.979080 
	C318.059753,213.166534 317.857727,213.417694 317.162842,213.966385 
	C316.283905,214.822128 315.404968,215.677872 314.146027,216.794952 
	C313.890381,216.975067 313.681580,217.198868 313.008942,217.693329 
	C312.616089,218.075409 312.223267,218.457504 311.380676,219.023849 
	C311.090546,219.197357 310.885071,219.441956 310.208923,219.950745 
	C309.650848,220.487991 309.092743,221.025253 308.088867,221.958679 
	C308.097839,222.217880 308.106812,222.477081 308.115784,222.736298 
	C308.495605,222.579697 308.875397,222.423080 309.807129,222.071640 
	C310.362488,221.536743 310.917847,221.001846 311.851959,220.205460 
	C312.109375,220.028336 312.317810,219.805450 312.994934,219.322128 
	C313.393829,218.942703 313.792694,218.563278 314.642609,218.001053 
	C314.933105,217.828262 315.141113,217.584961 315.846252,217.046539 
	C316.738403,216.194763 317.630554,215.343002 318.931213,214.208084 
	C319.145325,213.954605 319.359406,213.701111 320.002563,213.049637 
	C319.970947,212.787140 319.939362,212.524658 319.907776,212.262146 
	C319.533447,212.432266 319.159149,212.602402 318.340973,212.979080 
M296.888885,232.041138 
	C296.885925,231.784561 296.882965,231.528000 296.880035,231.271439 
	C296.493988,231.420517 296.107941,231.569580 295.272766,231.910736 
	C294.975098,232.066833 294.743713,232.291275 294.058441,232.780884 
	C293.656311,233.141861 293.254150,233.502838 292.386810,234.090500 
	C292.383087,234.316147 292.379364,234.541809 292.375641,234.767456 
	C292.713043,234.642395 293.050446,234.517334 293.933838,234.250748 
	C294.369049,233.913849 294.804260,233.576950 295.699890,233.070984 
	C296.003937,232.923004 296.241058,232.702896 296.888885,232.041138 
M302.998657,227.375580 
	C303.413300,227.005203 303.827942,226.634827 304.801514,226.065094 
	C305.369354,225.527588 305.937225,224.990067 306.941925,224.045502 
	C306.924805,223.783737 306.907684,223.521973 306.890564,223.260193 
	C306.501801,223.411133 306.113068,223.562088 305.177063,223.905197 
	C304.606323,224.416214 304.035553,224.927246 302.993713,225.701447 
	C302.593445,226.067764 302.193176,226.434082 301.345856,226.990082 
	C301.056183,227.161591 300.846375,227.402664 300.171021,227.924713 
	C299.645325,228.483353 299.119629,229.041992 298.161987,229.954620 
	C298.157135,230.191132 298.152313,230.427658 298.147461,230.664154 
	C298.489868,230.505646 298.832275,230.347122 299.740753,230.028320 
	C300.316101,229.507126 300.891449,228.985931 301.846191,228.219849 
	C302.106842,228.057678 302.315704,227.844711 302.998657,227.375580 
z"/>
<path fill="#F9EEEF" opacity="1.000000" stroke="none" 
	d="
M231.004486,280.419006 
	C229.330734,289.684052 227.228882,298.896759 226.087708,308.226959 
	C224.536453,320.910370 223.719559,333.683624 221.405487,346.657684 
	C220.976212,343.942841 219.985107,341.178864 220.217514,338.521881 
	C221.098663,328.447876 222.548264,318.424286 223.470032,308.352997 
	C225.511688,286.045868 231.682510,264.621765 237.291977,243.089035 
	C240.368942,231.277710 243.508240,219.424927 247.664642,207.970093 
	C251.231323,198.140488 256.283936,188.850037 261.436768,179.399765 
	C260.956512,181.441086 260.638641,183.537201 259.971222,185.515366 
	C252.272247,208.334274 244.316376,231.069183 236.889038,253.975647 
	C234.153717,262.411560 232.632462,271.241180 230.782104,280.182556 
	C231.006760,280.473938 231.004471,280.419006 231.004486,280.419006 
z"/>
<path fill="#F6E6E7" opacity="1.000000" stroke="none" 
	d="
M263.703064,110.670441 
	C287.126190,98.988106 311.665161,92.817055 335.981415,94.933472 
	C324.596771,96.475479 311.125031,97.442955 298.077148,100.327568 
	C286.807007,102.819145 276.018829,107.490456 264.504547,111.094650 
	C263.991516,110.991127 263.703064,110.670441 263.703064,110.670441 
z"/>
<path fill="#F5E2E4" opacity="1.000000" stroke="none" 
	d="
M264.130249,111.156250 
	C251.569687,118.252083 238.870422,125.182793 226.171143,132.113510 
	C225.846649,131.496841 225.522171,130.880173 225.197678,130.263504 
	C237.798080,123.778992 250.398499,117.294487 263.350983,110.740204 
	C263.703064,110.670441 263.991516,110.991127 264.130249,111.156250 
z"/>
<path fill="#F5E2E4" opacity="1.000000" stroke="none" 
	d="
M196.669952,142.878906 
	C195.260376,143.534515 193.860672,143.814392 191.555511,144.275330 
	C196.142181,137.005646 203.266022,134.801697 209.717560,131.624527 
	C205.371643,135.250748 201.025726,138.876953 196.669952,142.878906 
z"/>
<path fill="#F5E2E4" opacity="1.000000" stroke="none" 
	d="
M231.156937,280.880676 
	C231.004471,280.419006 231.006760,280.473938 230.987518,280.493286 
	C231.690231,279.742706 232.412186,278.972809 233.134140,278.202911 
	C233.552414,278.330383 233.970688,278.457825 234.388977,278.585266 
	C233.136963,285.642365 231.884964,292.699463 230.632950,299.756561 
	C230.125290,299.708466 229.617630,299.660370 229.109955,299.612274 
	C229.843109,293.522308 230.576263,287.432343 231.156937,280.880676 
z"/>
<path fill="#F5E2E4" opacity="1.000000" stroke="none" 
	d="
M247.834915,227.577362 
	C248.919983,223.607193 250.018829,220.025085 251.117676,216.442993 
	C251.573090,216.470840 252.028519,216.498672 252.483932,216.526520 
	C252.483932,220.104111 252.624451,223.695343 252.280701,227.239609 
	C252.243698,227.621246 249.393768,227.730057 247.834915,227.577362 
z"/>
<path fill="#F6E6E7" opacity="1.000000" stroke="none" 
	d="
M345.354950,191.943390 
	C344.856049,191.817596 344.648193,191.522827 344.197937,191.101410 
	C347.630402,186.405869 351.305237,181.836975 354.980103,177.268082 
	C355.436066,177.620346 355.892029,177.972595 356.347992,178.324860 
	C352.780670,182.808029 349.213348,187.291214 345.354950,191.943390 
z"/>
<path fill="#F5E2E4" opacity="1.000000" stroke="none" 
	d="
M201.410126,148.398376 
	C206.080933,144.765747 210.751740,141.133133 215.422546,137.500519 
	C215.806061,137.994339 216.189575,138.488174 216.573105,138.981995 
	C211.996597,142.322220 207.420090,145.662445 202.330933,148.896851 
	C201.682236,148.660141 201.546188,148.529251 201.410126,148.398376 
z"/>
<path fill="#EDCED0" opacity="1.000000" stroke="none" 
	d="
M178.462250,155.524490 
	C181.033173,153.468155 181.995667,149.311279 186.734177,148.902206 
	C184.441147,152.077591 182.590408,154.640503 180.739670,157.203400 
	C180.397675,156.954880 180.055679,156.706360 179.286819,156.162567 
	C178.727386,155.753021 178.594818,155.638748 178.462250,155.524490 
z"/>
<path fill="#F7EAEB" opacity="1.000000" stroke="none" 
	d="
M361.218323,185.191315 
	C359.225098,188.060699 357.231873,190.930069 355.238617,193.799438 
	C354.746582,193.437805 354.254547,193.076187 353.762482,192.714569 
	C355.820801,190.114273 357.879120,187.513977 360.380249,184.880997 
	C360.954803,184.962631 361.086548,185.076965 361.218323,185.191315 
z"/>
<path fill="#F7EAEB" opacity="1.000000" stroke="none" 
	d="
M352.780060,194.909058 
	C351.957977,196.644302 350.894928,198.051025 349.831879,199.457764 
	C349.356232,199.047058 348.880554,198.636353 348.404907,198.225647 
	C349.782959,197.010605 351.161011,195.795563 352.780060,194.909058 
z"/>
<path fill="#F5E2E4" opacity="1.000000" stroke="none" 
	d="
M217.496674,136.538971 
	C218.224808,136.350693 218.664612,136.407440 219.104401,136.464172 
	C218.694031,136.897736 218.283661,137.331284 217.873291,137.764832 
	C217.651657,137.437897 217.429993,137.110962 217.496674,136.538971 
z"/>
<path fill="#F6E6E7" opacity="1.000000" stroke="none" 
	d="
M357.636871,175.525818 
	C357.434784,176.331009 357.033539,176.844849 356.632294,177.358704 
	C356.434814,177.195694 356.237366,177.032684 356.039886,176.869675 
	C356.505829,176.324615 356.971771,175.779541 357.636871,175.525818 
z"/>
<path fill="#F5E2E4" opacity="1.000000" stroke="none" 
	d="
M224.638824,132.705322 
	C224.047058,132.752304 223.700546,132.588638 223.354050,132.424957 
	C223.864075,132.448181 224.374084,132.471420 224.638824,132.705322 
z"/>
<path fill="#F5E2E4" opacity="1.000000" stroke="none" 
	d="
M199.788910,149.763092 
	C200.175797,149.395920 200.562698,149.028763 201.179855,148.529968 
	C201.546188,148.529251 201.682236,148.660141 202.006454,149.003006 
	C201.780746,149.582748 201.366852,149.950500 200.534439,150.224121 
	C200.115921,150.129990 199.788910,149.763092 199.788910,149.763092 
z"/>
<path fill="#F5E2E4" opacity="1.000000" stroke="none" 
	d="
M200.269318,150.321976 
	C199.731766,150.572388 199.040817,150.630829 198.349854,150.689255 
	C198.625107,150.415176 198.900360,150.141083 199.482269,149.815048 
	C199.788910,149.763092 200.115921,150.129990 200.269318,150.321976 
z"/>
<path fill="#F7EAEB" opacity="1.000000" stroke="none" 
	d="
M360.632385,184.669128 
	C360.789276,184.041534 361.136871,183.593094 362.061157,182.400543 
	C361.858276,183.808487 361.784302,184.321823 361.464325,185.013245 
	C361.086548,185.076965 360.954803,184.962631 360.632385,184.669128 
z"/>
<path fill="#EDCED0" opacity="1.000000" stroke="none" 
	d="
M176.600784,157.610199 
	C176.680862,157.275421 176.848709,156.992752 177.473785,156.803909 
	C177.843277,156.845657 178.177780,157.167984 178.177780,157.167984 
	C177.986313,157.435364 177.794830,157.702759 177.236786,157.921936 
	C176.870209,157.873734 176.600784,157.610199 176.600784,157.610199 
z"/>
<path fill="#FBF4F5" opacity="1.000000" stroke="none" 
	d="
M361.001160,160.992599 
	C361.130219,160.652603 361.424835,160.479004 361.719421,160.305389 
	C361.760437,160.553864 361.801422,160.802338 361.681580,161.259109 
	C361.520752,161.467422 361.166748,161.158997 361.001160,160.992599 
z"/>
<path fill="#EDCED0" opacity="1.000000" stroke="none" 
	d="
M177.001282,158.009094 
	C176.906006,158.346405 176.679657,158.548325 176.453308,158.750244 
	C176.388519,158.483322 176.323730,158.216370 176.429871,157.779816 
	C176.600784,157.610199 176.870209,157.873734 177.001282,158.009094 
z"/>
<path fill="#EDCED0" opacity="1.000000" stroke="none" 
	d="
M179.045425,156.053131 
	C179.110580,156.552811 178.908127,156.799179 178.400635,157.072998 
	C178.177780,157.167984 177.843277,156.845657 177.684387,156.670212 
	C177.677231,156.228256 177.869614,155.995316 178.282440,155.660217 
	C178.594818,155.638748 178.727386,155.753021 179.045425,156.053131 
z"/>
<path fill="#F7EAEB" opacity="1.000000" stroke="none" 
	d="
M345.392120,202.452927 
	C345.072937,202.325134 344.753784,202.197357 344.785522,202.114380 
	C345.136444,202.159180 345.392120,202.452927 345.392120,202.452927 
z"/>
<path fill="#F5E2E4" opacity="1.000000" stroke="none" 
	d="
M220.576904,135.707642 
	C220.271561,135.740875 220.159561,135.620148 220.047562,135.499405 
	C220.288467,135.517487 220.529358,135.535568 220.576904,135.707642 
z"/>
<path fill="#F7EAEB" opacity="1.000000" stroke="none" 
	d="
M345.005737,202.014832 
	C345.030853,201.582077 345.186676,201.293655 345.764404,201.092514 
	C346.325714,201.296326 346.465118,201.412872 346.604523,201.529388 
	C346.354950,201.763748 346.105377,201.998093 345.623962,202.342682 
	C345.392120,202.452927 345.136444,202.159180 345.005737,202.014832 
z"/>
<path fill="#F7EAEB" opacity="1.000000" stroke="none" 
	d="
M346.795410,199.801926 
	C347.134613,199.562561 347.473846,199.323212 347.813049,199.083847 
	C347.877716,199.440918 347.942383,199.797989 347.591370,200.170486 
	C347.048981,200.057922 346.922211,199.929932 346.795410,199.801926 
z"/>
<path fill="#F7EAEB" opacity="1.000000" stroke="none" 
	d="
M345.993378,200.987228 
	C345.878448,200.458328 346.059265,200.191742 346.569153,199.898407 
	C346.922211,199.929932 347.048981,200.057922 347.348816,200.398621 
	C347.360901,200.856293 347.169586,201.074692 346.776245,201.397964 
	C346.465118,201.412872 346.325714,201.296326 345.993378,200.987228 
z"/>
<path fill="#FEFDFD" opacity="1.000000" stroke="none" 
	d="
M286.848846,411.205536 
	C291.491943,402.012543 298.403229,398.708160 306.992157,401.268890 
	C314.535645,403.517883 319.491180,412.231201 318.667603,421.797943 
	C317.475800,435.642426 307.604309,443.171783 296.143402,438.977966 
	C289.052460,436.383179 284.448853,428.019562 285.270172,418.892456 
	C285.491730,416.430145 286.219208,414.013367 286.848846,411.205536 
z"/>
<path fill="#FBF4F5" opacity="1.000000" stroke="none" 
	d="
M190.718292,416.378662 
	C191.687805,419.208618 192.512238,421.671387 193.486893,424.582947 
	C188.673813,424.582947 184.475159,424.582947 179.475067,424.582947 
	C181.830139,418.517975 184.022583,412.871796 186.635757,406.142151 
	C188.196671,410.054657 189.384933,413.033081 190.718292,416.378662 
z"/>
<path fill="#D07D85" opacity="1.000000" stroke="none" 
	d="
M326.970825,206.985245 
	C325.937988,208.004944 324.905121,209.024643 323.371796,209.962952 
	C322.719391,209.754654 322.567474,209.627762 322.415588,209.500885 
	C323.429840,208.440292 324.444061,207.379715 325.851501,206.405670 
	C326.436035,206.731216 326.678070,206.895569 326.970825,206.985245 
z"/>
<path fill="#D07D85" opacity="1.000000" stroke="none" 
	d="
M314.526062,216.533615 
	C315.404968,215.677872 316.283905,214.822128 317.641602,214.043549 
	C318.254486,214.244232 318.388611,214.367737 318.522705,214.491226 
	C317.630554,215.343002 316.738403,216.194763 315.373474,216.972290 
	C314.775818,216.776581 314.650940,216.655106 314.526062,216.533615 
z"/>
<path fill="#D07D85" opacity="1.000000" stroke="none" 
	d="
M303.464813,225.438263 
	C304.035553,224.927246 304.606323,224.416214 305.640869,223.999283 
	C306.238129,224.213104 306.371613,224.332825 306.505066,224.452545 
	C305.937225,224.990067 305.369354,225.527588 304.333130,225.953003 
	C303.731445,225.706696 303.598145,225.572479 303.464813,225.438263 
z"/>
<path fill="#D07D85" opacity="1.000000" stroke="none" 
	d="
M301.466797,228.464737 
	C300.891449,228.985931 300.316101,229.507126 299.314087,229.959930 
	C298.887451,229.891525 298.593933,229.600632 298.593933,229.600647 
	C299.119629,229.041992 299.645325,228.483353 300.629700,228.008484 
	C301.214508,228.216431 301.340668,228.340576 301.466797,228.464737 
z"/>
<path fill="#D07D85" opacity="1.000000" stroke="none" 
	d="
M308.534637,221.562500 
	C309.092743,221.025253 309.650848,220.487991 310.661682,220.034119 
	C311.234039,220.233994 311.353638,220.350479 311.473206,220.466949 
	C310.917847,221.001846 310.362488,221.536743 309.354095,221.989899 
	C308.778931,221.792953 308.656799,221.677719 308.534637,221.562500 
z"/>
<path fill="#D07D85" opacity="1.000000" stroke="none" 
	d="
M295.239502,233.240051 
	C294.804260,233.576950 294.369049,233.913849 293.528320,234.187927 
	C293.122833,234.125107 292.851990,233.863800 292.851990,233.863800 
	C293.254150,233.502838 293.656311,233.141861 294.483398,232.846832 
	C294.908325,232.912796 295.239502,233.240067 295.239502,233.240051 
z"/>
<path fill="#D07D85" opacity="1.000000" stroke="none" 
	d="
M304.053680,226.052673 
	C303.827942,226.634827 303.413300,227.005203 302.576569,227.270660 
	C302.033966,227.043961 301.913422,226.922195 301.792908,226.800415 
	C302.193176,226.434082 302.593445,226.067764 303.229248,225.569855 
	C303.598145,225.572479 303.731445,225.706696 304.053680,226.052673 
z"/>
<path fill="#D07D85" opacity="1.000000" stroke="none" 
	d="
M314.191589,218.183853 
	C313.792694,218.563278 313.393829,218.942703 312.582764,219.247406 
	C312.170593,219.172684 311.830444,218.839600 311.830444,218.839600 
	C312.223267,218.457504 312.616089,218.075409 313.426086,217.768005 
	C313.843262,217.842667 314.191589,218.183853 314.191589,218.183853 
z"/>
<path fill="#D07D85" opacity="1.000000" stroke="none" 
	d="
M295.721863,231.718658 
	C296.107941,231.569580 296.493988,231.420517 296.880035,231.271423 
	C296.882965,231.528000 296.885925,231.784561 296.477112,232.051697 
	C296.065308,232.062241 295.721863,231.718643 295.721863,231.718658 
z"/>
<path fill="#D07D85" opacity="1.000000" stroke="none" 
	d="
M294.743469,232.748413 
	C294.743713,232.291275 294.975098,232.066833 295.497314,231.814697 
	C295.721863,231.718643 296.065308,232.062241 296.238281,232.236465 
	C296.241058,232.702896 296.003937,232.923004 295.469696,233.155518 
	C295.239502,233.240067 294.908325,232.912796 294.743469,232.748413 
z"/>
<path fill="#D07D85" opacity="1.000000" stroke="none" 
	d="
M293.255341,234.258698 
	C293.050446,234.517334 292.713043,234.642395 292.375641,234.767456 
	C292.379364,234.541809 292.383087,234.316147 292.619385,233.977142 
	C292.851990,233.863800 293.122833,234.125107 293.255341,234.258698 
z"/>
<path fill="#C35A64" opacity="1.000000" stroke="none" 
	d="
M330.606415,203.551880 
	C330.387115,203.802368 330.167786,204.052841 329.557861,204.235443 
	C329.039368,204.039658 328.911499,203.911758 328.783661,203.783875 
	C328.974274,203.519302 329.164886,203.254730 329.778809,203.096603 
	C330.336884,203.319336 330.471649,203.435608 330.606415,203.551880 
z"/>
<path fill="#C35A64" opacity="1.000000" stroke="none" 
	d="
M329.346680,204.370941 
	C329.344666,204.831314 329.133911,205.061523 328.510498,205.194412 
	C328.001160,204.998566 327.875183,204.873260 327.749237,204.747955 
	C327.830353,204.406357 328.020721,204.144058 328.552002,203.872452 
	C328.911499,203.911758 329.039368,204.039658 329.346680,204.370941 
z"/>
<path fill="#C35A64" opacity="1.000000" stroke="none" 
	d="
M331.662659,202.493988 
	C331.445465,202.748840 331.228271,203.003693 330.808746,203.405212 
	C330.471649,203.435608 330.336884,203.319336 330.014648,203.012711 
	C330.007080,202.549850 330.186951,202.277328 330.794525,202.097366 
	C331.368988,202.291275 331.515808,202.392624 331.662659,202.493988 
z"/>
<path fill="#D07D85" opacity="1.000000" stroke="none" 
	d="
M299.031067,230.040070 
	C298.832275,230.347122 298.489868,230.505646 298.147461,230.664154 
	C298.152313,230.427658 298.157135,230.191132 298.377960,229.777618 
	C298.593933,229.600632 298.887451,229.891525 299.031067,230.040070 
z"/>
<path fill="#C35A64" opacity="1.000000" stroke="none" 
	d="
M327.124512,206.885773 
	C326.678070,206.895569 326.436035,206.731216 326.145752,206.293503 
	C326.046783,206.094803 326.326172,205.816727 326.701447,205.951416 
	C327.200867,206.211609 327.325012,206.337097 327.449188,206.462601 
	C327.449188,206.462601 327.278198,206.786316 327.124512,206.885773 
z"/>
<path fill="#D07D85" opacity="1.000000" stroke="none" 
	d="
M300.902435,227.902771 
	C300.846375,227.402664 301.056183,227.161591 301.569397,226.895264 
	C301.913422,226.922195 302.033966,227.043961 302.313629,227.373322 
	C302.315704,227.844711 302.106842,228.057678 301.656494,228.342285 
	C301.340668,228.340576 301.214508,228.216431 300.902435,227.902771 
z"/>
<path fill="#D07D85" opacity="1.000000" stroke="none" 
	d="
M305.914490,223.903198 
	C306.113068,223.562088 306.501801,223.411133 306.890564,223.260193 
	C306.907684,223.521973 306.924805,223.783737 306.723511,224.249023 
	C306.371613,224.332825 306.238129,224.213104 305.914490,223.903198 
z"/>
<path fill="#D07D85" opacity="1.000000" stroke="none" 
	d="
M309.078125,222.087326 
	C308.875397,222.423080 308.495605,222.579697 308.115784,222.736298 
	C308.106812,222.477081 308.097839,222.217880 308.311768,221.760590 
	C308.656799,221.677719 308.778931,221.792953 309.078125,222.087326 
z"/>
<path fill="#C35A64" opacity="1.000000" stroke="none" 
	d="
M326.890991,205.897369 
	C326.805328,205.378159 327.001129,205.120316 327.520935,204.841537 
	C327.875183,204.873260 328.001160,204.998566 328.311462,205.321320 
	C328.312531,205.779175 328.095032,206.006882 327.646240,206.332245 
	C327.325012,206.337097 327.200867,206.211609 326.890991,205.897369 
z"/>
<path fill="#D07D85" opacity="1.000000" stroke="none" 
	d="
M312.323975,219.354736 
	C312.317810,219.805450 312.109375,220.028336 311.662598,220.336212 
	C311.353638,220.350479 311.234039,220.233994 310.939331,219.937592 
	C310.885071,219.441956 311.090546,219.197357 311.605560,218.931732 
	C311.830444,218.839600 312.170593,219.172684 312.323975,219.354736 
z"/>
<path fill="#D07D85" opacity="1.000000" stroke="none" 
	d="
M315.083649,217.084595 
	C315.141113,217.584961 314.933105,217.828262 314.417114,218.092453 
	C314.191589,218.183853 313.843262,217.842667 313.681458,217.654510 
	C313.681580,217.198868 313.890381,216.975067 314.336060,216.664276 
	C314.650940,216.655106 314.775818,216.776581 315.083649,217.084595 
z"/>
<path fill="#C35A64" opacity="1.000000" stroke="none" 
	d="
M331.027588,202.006210 
	C331.200867,201.620224 331.568756,201.417953 331.936615,201.215668 
	C331.984680,201.493378 332.032745,201.771088 331.871735,202.271393 
	C331.515808,202.392624 331.368988,202.291275 331.027588,202.006210 
z"/>
<path fill="#D07D85" opacity="1.000000" stroke="none" 
	d="
M317.927612,213.926666 
	C317.857727,213.417694 318.059753,213.166534 318.749451,213.056976 
	C319.296448,213.239120 319.434967,213.343369 319.573517,213.447632 
	C319.359406,213.701111 319.145325,213.954605 318.726959,214.349655 
	C318.388611,214.367737 318.254486,214.244232 317.927612,213.926666 
z"/>
<path fill="#D07D85" opacity="1.000000" stroke="none" 
	d="
M318.971405,212.953705 
	C319.159149,212.602402 319.533447,212.432266 319.907776,212.262146 
	C319.939362,212.524658 319.970947,212.787140 319.788025,213.248627 
	C319.434967,213.343369 319.296448,213.239120 318.971405,212.953705 
z"/>
<path fill="#D07D85" opacity="1.000000" stroke="none" 
	d="
M322.245575,211.240219 
	C321.893646,211.450241 321.541687,211.660263 321.189758,211.870300 
	C321.132355,211.519455 321.074951,211.168610 321.437561,210.829712 
	C321.986908,210.974487 322.116241,211.107346 322.245575,211.240219 
z"/>
<path fill="#D07D85" opacity="1.000000" stroke="none" 
	d="
M323.083008,210.089722 
	C323.164917,210.604874 322.960571,210.849518 322.463593,211.136017 
	C322.116241,211.107346 321.986908,210.974487 321.685669,210.617096 
	C321.654663,210.139099 321.839539,209.923279 322.241974,209.623001 
	C322.567474,209.627762 322.719391,209.754654 323.083008,210.089722 
z"/>
</svg>